<svg width="17" height="17" viewBox="0 0 17 17" fill="none" xmlns="http://www.w3.org/2000/svg">
<path d="M0.270018 8.54285C0.562876 8.83571 0.855733 8.92785 1.43359 8.92785L7.77002 8.96142C7.82859 8.96142 7.87859 8.96142 7.90395 8.99464C7.92895 9.01964 7.93716 9.06999 7.93716 9.12035L7.96216 15.4654C7.97073 16.0429 8.06287 16.3357 8.35573 16.6286C8.7493 17.0303 9.3018 16.9636 9.7118 16.5618C9.92966 16.3439 10.1054 15.9843 10.2643 15.6493L16.6679 1.83821C17.0025 1.13535 16.9607 0.616065 16.6179 0.272851C16.2825 -0.061792 15.7636 -0.103578 15.0607 0.231065L1.2493 6.63464C0.914304 6.79356 0.554661 6.96928 0.336804 7.18714C-0.0649816 7.59714 -0.131767 8.14142 0.270018 8.54321" fill="white"/>
</svg>
